HIERARCHY
ROOT root
{
	OFFSET	0	13.1	24.9
	CHANNELS 6  Xposition Yposition Zposition Xrotation Yrotation Zrotation
	JOINT spine_1
	{
		OFFSET	0	9.99999	0
		CHANNELS 3  Xrotation Yrotation Zrotation
		JOINT spine_2
		{
			OFFSET	0	112	-10
			CHANNELS 3  Xrotation Yrotation Zrotation
			JOINT spine_3
			{
				OFFSET	0	206.5	19.3
				CHANNELS 3  Xrotation Yrotation Zrotation
				JOINT spine_4
				{
					OFFSET	0	110.4	14.6
					CHANNELS 3  Xrotation Yrotation Zrotation
					JOINT neck_1
					{
						OFFSET	0	71.8	-50.3
						CHANNELS 3  Xrotation Yrotation Zrotation
						JOINT neck_2
						{
							OFFSET	0	86.2	-25.8
							CHANNELS 3  Xrotation Yrotation Zrotation
							JOINT head_ee
							{
								OFFSET	0	179.8	-8.7
								CHANNELS 3  Xrotation Yrotation Zrotation
								End Site
								{
									OFFSET	1	0	0
								}
							}
						}
					}
					JOINT left_clavicle
					{
						OFFSET	-43.2	22.4	-70.8
						CHANNELS 3  Xrotation Yrotation Zrotation
						JOINT left_shoulder
						{
							OFFSET	-93.9	-5.79999	48.7
							CHANNELS 3  Xrotation Yrotation Zrotation
							JOINT left_elbow
							{
								OFFSET	-291.4	-30.8	15.2
								CHANNELS 3  Xrotation Yrotation Zrotation
								JOINT left_lowarm_twist
								{
									OFFSET	-110.7	-3.89999	13.6
									CHANNELS 3  Xrotation Yrotation Zrotation
									JOINT left_hand
									{
										OFFSET	-110.7	-3.89999	13.6
										CHANNELS 3  Xrotation Yrotation Zrotation
										JOINT left_ee
										{
											OFFSET	-80.8	-5.10001	12.1
											CHANNELS 3  Xrotation Yrotation Zrotation
											End Site
											{
												OFFSET	1	0	0
											}
										}
									}
								}
							}
						}
					}
					JOINT right_clavicle
					{
						OFFSET	43.2	22.4	-70.8
						CHANNELS 3  Xrotation Yrotation Zrotation
						JOINT right_shoulder
						{
							OFFSET	93.9	-5.79999	48.7
							CHANNELS 3  Xrotation Yrotation Zrotation
							JOINT right_elbow
							{
								OFFSET	291.4	-30.8	15.2
								CHANNELS 3  Xrotation Yrotation Zrotation
								JOINT right_lowarm_twist
								{
									OFFSET	110.7	-3.89999	13.6
									CHANNELS 3  Xrotation Yrotation Zrotation
									JOINT right_hand
									{
										OFFSET	110.7	-3.89999	13.6
										CHANNELS 3  Xrotation Yrotation Zrotation
										JOINT right_ee
										{
											OFFSET	80.8	-5.10001	12.1
											CHANNELS 3  Xrotation Yrotation Zrotation
											End Site
											{
												OFFSET	1	0	0
											}
										}
									}
								}
							}
						}
					}
				}
			}
		}
	}
	JOINT left_hip
	{
		OFFSET	-82.8	-127.5	0.300001
		CHANNELS 3  Xrotation Yrotation Zrotation
		JOINT left_knee
		{
			OFFSET	-28.2	-396.7	2.2
			CHANNELS 3  Xrotation Yrotation Zrotation
			JOINT left_ankle
			{
				OFFSET	-11.7	-411.3	35.4
				CHANNELS 3  Xrotation Yrotation Zrotation
				JOINT left_toes
				{
					OFFSET	0	-60	-88.6
					CHANNELS 3  Xrotation Yrotation Zrotation
					JOINT left_foot_ee
					{
						OFFSET	-22.5	-16.5	-42.2
						CHANNELS 3  Xrotation Yrotation Zrotation
						End Site
						{
							OFFSET	1	0	0
						}
					}
				}
			}
		}
	}
	JOINT right_hip
	{
		OFFSET	82.8	-127.5	0.300001
		CHANNELS 3  Xrotation Yrotation Zrotation
		JOINT right_knee
		{
			OFFSET	28.2	-396.7	2.2
			CHANNELS 3  Xrotation Yrotation Zrotation
			JOINT right_ankle
			{
				OFFSET	11.7	-411.3	35.4
				CHANNELS 3  Xrotation Yrotation Zrotation
				JOINT right_toes
				{
					OFFSET	0	-60	-88.6
					CHANNELS 3  Xrotation Yrotation Zrotation
					JOINT right_foot_ee
					{
						OFFSET	22.5	-16.5	-42.2
						CHANNELS 3  Xrotation Yrotation Zrotation
						End Site
						{
							OFFSET	1	0	0
						}
					}
				}
			}
		}
	}
}
MOTION
Frames: 11
Frame Time: 0.02
2043.14 676.583 -447.708 144.713 -82.2791 148.845 -2.04904 0.052901 -0.378288 -2.04896 0.076865 -0.374155 -2.04941 0.166194 -0.343918 -2.04956 0.109794 -0.365849 -12.4858 3.74881 3.16461 -12.473 5.1071 4.1124 -0.0 0.0 -0.0 -2.71009 23.6082 -0.969228 -17.1235 -17.8927 76.5518 0.521524 -14.4857 0.0662804 -13.7422 -0.681527 1.61534 2.45232 29.8135 25.6001 -0.0 0.0 -0.0 8.25035 27.1205 -14.858 20.2109 19.8164 -55.2112 3.24493 58.1009 -1.80276 57.4677 1.55374 6.86947 0.799604 1.64947 -4.66921 0.0 0.0 0.0 28.2489 12.3306 -10.1661 -2.96347 0.110622 0.441293 9.33544 7.70169 -1.32998 -27.1742 0.0 0.0 -0.0 0.0 -0.0 -15.358 34.851 -11.2994 -15.847 -0.321974 -2.40285 41.9938 -20.4274 5.21936 -6.40464 0.0 0.0 0.0 0.0 0.0 
2057.65 677.881 -452.666 147.61 -82.2777 151.837 -2.00191 -0.0144256 -0.400475 -2.00182 0.0110867 -0.400581 -2.00182 0.108574 -0.385746 -2.00202 0.0462908 -0.398052 -11.6295 4.53098 3.39137 -11.6179 6.37723 4.51013 -0.0 0.0 -0.0 -2.73282 22.4958 -1.21188 -16.4194 -17.6017 77.0191 0.536036 -14.8711 0.0699579 -14.3013 -0.71733 1.67729 2.64753 29.9659 26.818 -0.0 0.0 -0.0 8.37675 27.1553 -15.1332 19.8296 19.5272 -55.0422 3.20128 57.7522 -1.76578 56.8048 1.49787 6.80547 0.790726 2.02605 -4.45363 0.0 0.0 0.0 28.2405 12.1549 -9.84036 -3.72154 0.135238 0.555031 9.30376 8.16343 -1.32561 -27.139 0.0 0.0 -0.0 0.0 -0.0 -16.1999 35.41 -10.8757 -15.6593 -0.322073 -2.37404 41.7546 -20.8073 5.20786 -6.57859 0.0 0.0 0.0 0.0 0.0 
2076.8 683.077 -456.354 148.311 -82.8661 152.827 -1.87845 -0.0581412 -0.37308 -1.87837 -0.0342835 -0.376023 -1.87807 0.0577737 -0.373137 -1.87826 -0.00188093 -0.377578 -10.7168 4.19413 2.88543 -10.7086 5.99934 3.88701 -0.0 0.0 -0.0 -2.38975 22.1124 -0.799834 -15.5696 -17.5168 76.5719 0.550458 -15.2528 0.0737056 -14.3053 -0.717587 1.67773 2.7559 29.5681 27.4196 -0.0 0.0 -0.0 8.63726 27.3907 -15.6827 18.3707 19.0673 -55.1287 3.02056 56.233 -1.61422 55.9847 1.42978 6.72542 0.904026 2.75785 -4.9135 0.0 0.0 0.0 27.5624 12.4594 -9.47261 -4.48221 0.158421 0.669468 8.06476 9.75438 -1.15432 -27.1418 0.0 0.0 -0.0 0.0 -0.0 -16.425 36.0118 -11.4753 -15.8899 -0.321938 -2.40942 40.99 -19.934 5.11745 -6.64075 0.0 0.0 0.0 0.0 0.0 
2093.85 685.556 -460.443 147.71 -83.1218 152.332 -1.83131 -0.10094 -0.360565 -1.83124 -0.0777921 -0.366257 -1.83066 0.0128844 -0.374205 -1.83085 -0.0463757 -0.371544 -10.3397 4.37763 3.15483 -10.3264 6.13589 4.17757 -0.0 0.0 -0.0 -2.06755 22.1481 -0.338931 -14.4967 -17.7827 76.0308 0.566379 -15.6726 0.0779504 -14.8547 -0.753361 1.73827 2.73405 29.8391 27.3295 -0.0 0.0 -0.0 8.63565 27.0596 -15.7156 17.1567 18.5726 -55.0252 2.95473 55.6478 -1.55968 55.3754 1.37994 6.66532 0.915365 2.58733 -5.0607 0.0 0.0 0.0 27.017 12.5001 -9.14141 -4.22089 0.150628 0.63012 7.25015 11.6946 -1.04205 -27.0127 0.0 0.0 -0.0 0.0 -0.0 -16.8104 36.8589 -11.5014 -15.7394 -0.322043 -2.38632 40.2237 -19.1383 5.02954 -6.45517 0.0 0.0 0.0 0.0 0.0 
2113.57 687.374 -466.332 145.13 -83.6764 150.112 -1.80044 -0.170625 -0.407123 -1.80036 -0.144373 -0.417155 -1.79919 -0.0396909 -0.439643 -1.79944 -0.108626 -0.427858 -9.41737 4.44265 1.69866 -9.42358 7.17981 2.72766 -0.0 0.0 -0.0 -1.55384 21.6872 0.313224 -14.2017 -18.3714 74.686 0.580354 -16.0396 0.0817686 -14.7288 -0.745113 1.72443 2.82798 29.3186 27.8275 -0.0 0.0 -0.0 8.56953 27.6597 -15.5031 16.2324 18.4235 -54.5462 2.68684 53.0722 -1.34191 54.888 1.34054 6.61688 0.825487 2.0597 -4.67368 0.0 0.0 0.0 26.4702 12.6871 -8.87009 -5.10532 0.176278 0.763428 10.228 11.1028 -1.45497 -26.677 0.0 0.0 -0.0 0.0 -0.0 -17.0558 36.5331 -11.64 -15.9727 -0.321854 -2.42213 41.6946 -19.0918 5.16073 -6.54427 0.0 0.0 0.0 0.0 0.0 
2134.98 694.056 -473.378 142.526 -83.9816 147.787 -1.82793 -0.258494 -0.396687 -1.82787 -0.232728 -0.412332 -1.82607 -0.126397 -0.456293 -1.8263 -0.196873 -0.430605 -9.25967 4.44338 2.03276 -9.26105 6.94175 3.04594 -0.0 0.0 -0.0 -1.1733 21.3546 0.805894 -13.3645 -18.0567 74.2543 0.581082 -16.0587 0.0819698 -15.2212 -0.777549 1.77846 2.75652 29.1999 27.3612 -0.0 0.0 -0.0 8.57851 26.2568 -15.6754 14.0506 17.7601 -54.8082 2.59252 52.0848 -1.267 54.0882 1.27678 6.53666 0.899387 1.9894 -5.20049 0.0 0.0 0.0 25.0222 12.9923 -8.64007 -4.97784 0.172708 0.744189 10.5057 11.5437 -1.49375 -26.4775 0.0 0.0 -0.0 0.0 -0.0 -16.8274 36.7087 -11.8577 -17.3748 -0.317652 -2.6372 41.5575 -18.0089 5.125 -6.2771 0.0 0.0 0.0 0.0 0.0 
2157.59 695.252 -479.894 143.668 -83.4977 149.132 -1.74297 -0.380192 -0.517717 -1.74288 -0.346478 -0.540859 -1.73939 -0.206713 -0.608148 -1.73978 -0.300163 -0.567871 -9.40958 4.19056 1.43685 -9.41675 6.8851 2.41058 -0.0 0.0 -0.0 -0.652226 20.9033 1.49228 -12.7994 -18.2109 73.7717 0.548079 -15.1899 0.073081 -15.9162 -0.824127 1.85427 2.59013 29.402 26.3665 -0.0 0.0 -0.0 8.28791 24.9393 -15.1678 12.0416 18.361 -55.7192 2.6369 52.5549 -1.30212 53.3646 1.22008 6.46333 0.91275 1.44293 -5.51594 0.0 0.0 0.0 23.7651 13.2747 -8.58777 -5.81227 0.195298 0.870252 12.5338 11.7745 -1.76982 -26.0488 0.0 0.0 -0.0 0.0 -0.0 -17.2248 36.9278 -11.2304 -18.3027 -0.311977 -2.77946 41.174 -17.1442 5.07389 -6.35645 0.0 0.0 0.0 0.0 0.0 
2181.43 700.877 -487.99 143.465 -83.3236 149.245 -1.71959 -0.323097 -0.719105 -1.71934 -0.276685 -0.738206 -1.71541 -0.0919687 -0.782969 -1.7162 -0.214466 -0.75862 -9.88963 4.4279 1.18021 -9.90362 7.53196 2.24605 -0.0 0.0 -0.0 -0.237719 20.4216 2.03305 -12.1118 -18.7512 73.175 0.582932 -16.1072 0.0824825 -16.6005 -0.870886 1.92835 2.50159 29.8685 25.9094 -0.0 0.0 -0.0 7.02819 24.4589 -12.4436 9.81209 19.6146 -57.4572 2.54291 51.5473 -1.22801 51.9943 1.11525 6.32255 0.986477 0.824966 -6.26618 0.0 0.0 0.0 22.0632 13.5834 -8.48665 -7.43468 0.233951 1.11622 16.2863 10.2629 -2.2629 -23.0375 0.0 0.0 -0.0 0.0 -0.0 -17.4575 36.8822 -10.7101 -19.6401 -0.299747 -2.98429 41.0657 -16.027 5.04398 -6.56575 0.0 0.0 0.0 0.0 0.0 
2206.96 705.111 -493.765 140.479 -82.8481 146.487 -1.66764 -0.465074 -0.91927 -1.66726 -0.405639 -0.946997 -1.65993 -0.16821 -1.01639 -1.66123 -0.32661 -0.977071 -10.0563 4.48774 1.14439 -10.0722 7.67747 2.23652 -0.0 0.0 -0.0 0.100083 19.7097 2.44709 -10.7732 -19.2193 73.0133 0.576933 -15.9499 0.0808259 -16.9614 -0.895904 1.9672 2.39841 29.9424 25.2979 -0.0 0.0 -0.0 6.88744 22.3182 -12.3352 7.22043 18.6008 -57.9888 2.58739 52.0299 -1.26296 51.7858 1.0996 6.30092 1.00392 0.786709 -6.39931 0.0 0.0 0.0 20.1071 13.9365 -9.03256 -8.59696 0.257351 1.29304 18.7355 9.88602 -2.5755 -22.1849 0.0 0.0 -0.0 0.0 -0.0 -17.0786 36.7611 -10.1645 -21.0362 -0.281883 -3.19776 40.8286 -15.2887 5.01084 -5.8939 0.0 0.0 0.0 0.0 0.0 
2228.71 705.777 -500.102 140.281 -81.6405 146.683 -1.65167 -0.258371 -1.02992 -1.6511 -0.192315 -1.04427 -1.64696 0.061949 -1.06002 -1.64851 -0.106229 -1.0565 -11.9944 4.15924 0.203795 -12.0261 7.75509 1.36656 -0.0 0.0 -0.0 0.311274 18.6734 2.65113 -9.85017 -19.6366 72.647 0.557576 -15.4407 0.0755894 -18.2399 -0.986492 2.10354 2.12246 29.7577 23.6092 -0.0 0.0 -0.0 6.26102 20.0674 -11.1632 6.09762 19.6996 -59.5069 2.37894 49.6758 -1.10126 51.1537 1.05264 6.23498 0.933165 -0.286751 -6.36159 0.0 0.0 0.0 18.7571 14.1307 -9.37258 -12.0795 0.305925 1.82511 22.3691 8.24433 -3.02085 -20.372 0.0 0.0 -0.0 0.0 -0.0 -15.8086 35.3554 -9.5524 -26.3714 -0.16586 -4.00796 40.9693 -14.0806 5.00503 -5.84165 0.0 0.0 0.0 0.0 0.0 
2245.34 708.73 -506.266 143.121 -80.9088 149.725 -1.5383 -0.21028 -1.14951 -1.53758 -0.136713 -1.16055 -1.53409 0.141377 -1.15999 -1.53596 -0.0435837 -1.16776 -12.6684 4.32489 0.184929 -12.7078 8.10126 1.44288 -0.0 0.0 -0.0 0.792283 17.6862 3.28425 -7.76593 -20.0865 72.2747 0.557489 -15.4384 0.0755662 -18.4142 -0.999076 2.12197 1.89828 29.7205 22.2772 -0.0 0.0 -0.0 6.01985 19.3607 -10.6981 2.81179 20.3099 -59.8416 2.34759 49.3007 -1.07743 50.1228 0.977613 6.12635 0.86013 -1.28949 -6.27913 0.0 0.0 0.0 17.5149 14.3622 -9.45132 -13.0119 0.313434 1.96798 25.165 7.67761 -3.35036 -19.0559 0.0 0.0 -0.0 0.0 -0.0 -15.4036 35.7794 -8.48409 -28.9719 -0.0820694 -4.39824 41.1229 -13.0423 5.00457 -5.67519 0.0 0.0 0.0 0.0 0.0 
